<svg width="44" height="44" viewBox="0 0 44 44" fill="none" xmlns="http://www.w3.org/2000/svg">
<path d="M0 11C0 7.96243 2.46243 5.5 5.5 5.5H38.5C41.5376 5.5 44 7.96243 44 11V33C44 36.0376 41.5376 38.5 38.5 38.5H5.5C2.46244 38.5 0 36.0376 0 33V11ZM5.5 8.25C3.98122 8.25 2.75 9.48122 2.75 11V11.5965L22 23.1465L41.25 11.5965V11C41.25 9.48122 40.0188 8.25 38.5 8.25H5.5ZM41.25 14.8035L28.3028 22.5718L41.25 30.5393V14.8035ZM41.1572 33.7112L25.646 24.1659L22 26.3535L18.354 24.1659L2.84285 33.7112C3.1563 34.8853 4.22716 35.75 5.5 35.75H38.5C39.7728 35.75 40.8437 34.8853 41.1572 33.7112ZM2.75 30.5393L15.6972 22.5718L2.75 14.8035V30.5393Z" fill="white"/>
</svg>
