<svg width="40" height="40" viewBox="0 0 40 40" fill="none" xmlns="http://www.w3.org/2000/svg">
<path fill-rule="evenodd" clip-rule="evenodd" d="M19.9999 4.80005C11.6052 4.80005 4.79989 11.6053 4.79989 20.0001C4.79989 28.3947 11.6052 35.2 19.9999 35.2C28.3947 35.2 35.2 28.3947 35.2 20.0001C35.2 11.6053 28.3947 4.80005 19.9999 4.80005ZM2.3999 20.0001C2.3999 10.2798 10.2797 2.40006 19.9999 2.40006C29.72 2.40006 37.6 10.2798 37.6 20.0001C37.6 29.7203 29.72 37.6 19.9999 37.6C10.2797 37.6 2.3999 29.7203 2.3999 20.0001Z"/>
<path fill-rule="evenodd" clip-rule="evenodd" d="M35.9998 21.0666H3.99988V18.9333H35.9998V21.0666Z"/>
<path fill-rule="evenodd" clip-rule="evenodd" d="M18.9331 36V4H21.0665V36H18.9331ZM27.6667 19.9999C27.6667 14.206 25.5831 8.47408 21.4983 4.68416L22.7679 3.31576C27.3057 7.52581 29.5334 13.7939 29.5334 19.9999C29.5334 26.206 27.3057 32.4741 22.7679 36.6843L21.4983 35.3157C25.5831 31.5259 27.6667 25.7939 27.6667 19.9999ZM10.6659 20C10.6659 13.803 12.821 7.53808 17.2205 3.32584L18.5114 4.67416C14.5553 8.46195 12.5326 14.197 12.5326 20C12.5326 25.803 14.5553 31.5381 18.5115 35.3259L17.2206 36.6741C12.8211 32.4619 10.6659 26.1971 10.6659 20Z"/>
<path fill-rule="evenodd" clip-rule="evenodd" d="M19.9999 10.5547C25.7847 10.5547 31.6674 11.6244 35.6549 13.8519C36.105 14.1033 36.2661 14.6719 36.0146 15.1219C35.7634 15.5719 35.1946 15.733 34.7448 15.4816C31.145 13.4708 25.6213 12.4214 19.9999 12.4214C14.3784 12.4214 8.85468 13.4708 5.255 15.4816C4.80497 15.733 4.23639 15.5719 3.985 15.1219C3.73364 14.6719 3.89465 14.1033 4.34468 13.8519C8.33239 11.6244 14.215 10.5547 19.9999 10.5547ZM19.9999 28.9333C25.7847 28.9333 31.6674 27.8635 35.6549 25.636C36.105 25.3846 36.2661 24.816 36.0146 24.366C35.7634 23.916 35.1946 23.755 34.7448 24.0063C31.145 26.0171 25.6213 27.0667 19.9999 27.0667C14.3784 27.0667 8.85468 26.0171 5.255 24.0064C4.80497 23.755 4.23639 23.916 3.985 24.366C3.73364 24.816 3.89465 25.3846 4.34468 25.636C8.33239 27.8635 14.215 28.9333 19.9999 28.9333Z"/>
</svg>
