<svg width="44" height="44" viewBox="0 0 44 44" fill="none" xmlns="http://www.w3.org/2000/svg">
<path d="M10.0482 3.65335C9.35944 2.76786 8.05049 2.68637 7.25726 3.47959L4.41397 6.32288C3.08441 7.65244 2.59564 9.53605 3.17653 11.1883C5.50928 17.8234 9.32842 24.0535 14.6375 29.3625C19.9465 34.6716 26.1766 38.4907 32.8117 40.8235C34.4639 41.4044 36.3476 40.9156 37.6771 39.586L40.5204 36.7427C41.3136 35.9495 41.2321 34.6406 40.3467 33.9519L34.0046 29.0192C33.5523 28.6673 32.9633 28.543 32.4073 28.682L26.3874 30.187C24.7522 30.5958 23.0225 30.1167 21.8307 28.9249L15.0751 22.1693C13.8834 20.9775 13.4043 19.2478 13.813 17.6126L15.318 11.5927C15.457 11.0367 15.3327 10.4477 14.9808 9.99538L10.0482 3.65335ZM5.18313 1.40546C7.22394 -0.635356 10.5916 -0.425692 12.3635 1.85249L17.2962 8.19452C18.2014 9.35836 18.5213 10.8737 18.1637 12.3041L16.6587 18.3241C16.4998 18.9596 16.6861 19.6319 17.1493 20.0951L23.9049 26.8507C24.3681 27.314 25.0404 27.5002 25.6759 27.3413L31.6959 25.8363C33.1263 25.4787 34.6417 25.7986 35.8055 26.7038L42.1475 31.6365C44.4257 33.4084 44.6354 36.7761 42.5945 38.8169L39.7513 41.6602C37.717 43.6944 34.6744 44.5876 31.8388 43.5907C24.7982 41.1154 18.1896 37.0629 12.5633 31.4367C6.93714 25.8104 2.88461 19.2018 0.409305 12.1612C-0.587627 9.32559 0.305608 6.28298 2.33984 4.24875L5.18313 1.40546Z" fill="white"/>
</svg>
