<svg width="32" height="32" viewBox="0 0 32 32" fill="none" xmlns="http://www.w3.org/2000/svg">
<path d="M12 8.70627C12 7.43255 13.0326 6.4 14.3063 6.4V6.4C15.58 6.4 16.6126 7.43255 16.6126 8.70628V9.70667C16.6126 11.5329 18.093 13.0133 19.9192 13.0133H21.8063C24.6747 13.0133 27 10.688 27 7.81961V2.5C27 1.11929 28.1193 0 29.5 0V0C30.8807 0 32 1.11929 32 2.5V14.56V17.4933V29.5C32 30.8807 30.8807 32 29.5 32V32C28.1193 32 27 30.8807 27 29.5V23.3006C27 20.4173 24.6627 18.08 21.7794 18.08H20.1061C18.1708 18.08 16.5964 19.6382 16.5764 21.5733L16.5636 22.8084C16.5507 24.0594 15.5329 25.0667 14.2819 25.0667V25.0667C13.0216 25.0667 12 24.045 12 22.7848V8.70627Z" fill="#232121"/>
<path d="M0 4.70498C0 2.10649 2.10649 0 4.70498 0V0H20.8933C22.0568 0 23 0.943187 23 2.10667V2.10667C23 3.27015 22.0568 4.21333 20.8933 4.21333H9.22559C6.79553 4.21333 4.82559 6.18328 4.82559 8.61333V10.5364C4.82559 11.9044 5.93457 13.0133 7.30256 13.0133V13.0133C8.6939 13.0133 9.8123 14.159 9.77881 15.5499L9.77736 15.61C9.74499 16.954 8.6462 18.0267 7.30183 18.0267V18.0267C5.93424 18.0267 4.82559 19.1353 4.82559 20.5029V22.5867C4.82559 25.1051 6.86717 27.1467 9.38559 27.1467H20.5733C21.9135 27.1467 23 28.2331 23 29.5733V29.5733C23 30.9135 21.9135 32 20.5733 32H4.82559V32C2.16049 32 0 29.8395 0 27.1744V4.70498Z" fill="#F9F6EE"/>
</svg>
