<svg width="16" height="16" viewBox="0 0 16 16" fill="none" xmlns="http://www.w3.org/2000/svg">
<path d="M6 4.35314C6 3.71628 6.51628 3.2 7.15314 3.2V3.2C7.79 3.2 8.30628 3.71628 8.30628 4.35314V4.85333C8.30628 5.76644 9.0465 6.50667 9.95961 6.50667H10.9031C12.3373 6.50667 13.5 5.34401 13.5 3.9098V1.25C13.5 0.559644 14.0596 0 14.75 0V0C15.4404 0 16 0.559644 16 1.25V7.28V8.74667V14.75C16 15.4404 15.4404 16 14.75 16V16C14.0596 16 13.5 15.4404 13.5 14.75V11.6503C13.5 10.2087 12.3313 9.04 10.8897 9.04H10.053C9.08542 9.04 8.29821 9.8191 8.2882 10.7867L8.2818 11.4042C8.27533 12.0297 7.76644 12.5333 7.14093 12.5333V12.5333C6.51081 12.5333 6 12.0225 6 11.3924V4.35314Z" fill="#232121"/>
<path d="M0 2.45477C0 1.09904 1.09904 0 2.45477 0V0H10.9467C11.5284 0 12 0.471593 12 1.05333V1.05333C12 1.63507 11.5284 2.10667 10.9467 2.10667H4.7177C3.50267 2.10667 2.5177 3.09164 2.5177 4.30667V5.21502C2.5177 5.92838 3.09599 6.50667 3.80935 6.50667H3.84863C4.55316 6.50667 5.11927 7.08718 5.10157 7.79149V7.79149C5.08449 8.4712 4.52856 9.01333 3.84863 9.01333H3.81032C3.09642 9.01333 2.5177 9.59206 2.5177 10.306V11.2933C2.5177 12.5525 3.53849 13.5733 4.7977 13.5733H10.7867C11.4568 13.5733 12 14.1166 12 14.7867V14.7867C12 15.4568 11.4568 16 10.7867 16H2.5177V16C1.12721 16 0 14.8728 0 13.4823V2.45477Z" fill="#F9F6EE"/>
</svg>
