<svg width="172" height="172" viewBox="0 0 172 172" fill="none" xmlns="http://www.w3.org/2000/svg">
<g id="docker" clip-path="url(#clip0_96_1501)">
<path id="symbol" d="M132.75 48.374L136.421 51.0614C142.805 56.2682 146.475 62.1469 147.273 68.8654C154.136 67.5217 162.913 68.5295 166.744 71.2168L170.255 73.4004L169.616 74.744C168.499 77.2635 168.18 77.9353 168.02 78.2712C161.796 90.8684 149.507 91.0364 143.762 90.8684C129.239 127.652 98.278 147.975 56.4645 147.975C37.1537 147.975 22.4711 141.761 12.5763 129.5C-0.510377 113.375 -0.510378 92.3801 0.606777 85.6616L0.925964 84.3179H116.312C122.377 84.3179 127.005 82.6383 129.239 81.2946C126.845 77.5994 126.047 73.4004 125.888 71.0489C125.409 64.3304 127.005 57.276 130.197 52.2371L132.75 48.374ZM30.9295 64.1624V80.9586H13.3743V64.1624H30.9295ZM51.6767 64.1624V80.9586H34.1214V64.1624H51.6767ZM72.4238 64.1624V80.9586H54.8686V64.1624H72.4238ZM93.171 64.1624V80.9586H75.6157V64.1624H93.171ZM113.918 64.1624V80.9586H96.3629V64.1624H113.918ZM93.171 44.007V60.8032H75.6157V44.007H93.171ZM72.4238 44.007V60.8032H54.8686V44.007H72.4238ZM51.6767 44.007V60.8032H34.1214V44.007H51.6767ZM93.171 23.8516V40.6478H75.6157V23.8516H93.171Z" fill="#2396ED"/>
</g>
<defs>
<clipPath id="clip0_96_1501">
<rect width="172" height="172" fill="white" transform="translate(0.158691)"/>
</clipPath>
</defs>
</svg>
