<svg width="172" height="172" viewBox="0 0 172 172" fill="none" xmlns="http://www.w3.org/2000/svg">
<g id="figma">
<path id="Vector" d="M57.5573 172C73.3813 172 86.224 159.157 86.224 143.333V114.667H57.5573C41.7333 114.667 28.8906 127.509 28.8906 143.333C28.8906 159.157 41.7333 172 57.5573 172Z" fill="#0ACF83"/>
<path id="Vector_2" d="M28.8906 86C28.8906 70.176 41.7333 57.3334 57.5573 57.3334H86.224V114.667H57.5573C41.7333 114.667 28.8906 101.824 28.8906 86Z" fill="#A259FF"/>
<path id="Vector_3" d="M28.8906 28.6667C28.8906 12.8427 41.7333 0 57.5573 0H86.224V57.3333H57.5573C41.7333 57.3333 28.8906 44.4907 28.8906 28.6667Z" fill="#F24E1E"/>
<path id="Vector_4" d="M86.224 0H114.891C130.715 0 143.557 12.8427 143.557 28.6667C143.557 44.4907 130.715 57.3333 114.891 57.3333H86.224V0Z" fill="#FF7262"/>
<path id="Vector_5" d="M143.557 86C143.557 101.824 130.715 114.667 114.891 114.667C99.0666 114.667 86.224 101.824 86.224 86C86.224 70.176 99.0666 57.3334 114.891 57.3334C130.715 57.3334 143.557 70.176 143.557 86Z" fill="#1ABCFE"/>
</g>
</svg>
