<svg width="172" height="172" viewBox="0 0 172 172" fill="none" xmlns="http://www.w3.org/2000/svg">
<g id="Github">
<path id="Shape" fill-rule="evenodd" clip-rule="evenodd" d="M86.0007 4.03125C39.6231 4.03125 2.01562 41.6318 2.01562 88.0163C2.01562 125.123 26.0799 156.604 59.4497 167.71C63.647 168.487 65.188 165.888 65.188 163.669C65.188 161.667 65.1101 155.051 65.074 148.033C41.7092 153.114 36.779 138.124 36.779 138.124C32.9586 128.416 27.454 125.835 27.454 125.835C19.834 120.623 28.0284 120.73 28.0284 120.73C36.4619 121.322 40.9026 129.384 40.9026 129.384C48.3932 142.224 60.5498 138.512 65.3424 136.366C66.0962 130.938 68.2727 127.233 70.6745 125.136C52.0203 123.012 32.4106 115.811 32.4106 83.6299C32.4106 74.4606 35.6914 66.9686 41.0639 61.0871C40.1919 58.9717 37.3172 50.4297 41.8775 38.8614C41.8775 38.8614 48.9301 36.6042 64.9794 47.4702C71.6787 45.6093 78.8633 44.6761 86.0007 44.6442C93.1381 44.6761 100.328 45.6093 107.04 47.4702C123.07 36.6042 130.113 38.8614 130.113 38.8614C134.684 50.4297 131.808 58.9717 130.936 61.0871C136.321 66.9686 139.58 74.4606 139.58 83.6299C139.58 115.887 119.932 122.99 101.231 125.069C104.243 127.675 106.927 132.786 106.927 140.622C106.927 151.859 106.83 160.903 106.83 163.669C106.83 165.904 108.342 168.523 112.599 167.698C145.951 156.581 169.984 125.111 169.984 88.0163C169.984 41.6318 132.382 4.03125 86.0007 4.03125ZM33.4708 123.67C33.2858 124.087 32.6294 124.212 32.0313 123.926C31.4222 123.652 31.0801 123.083 31.2775 122.664C31.4583 122.234 32.1162 122.115 32.7239 122.403C33.3345 122.677 33.6822 123.251 33.4708 123.67ZM37.6019 127.356C37.2014 127.727 36.4184 127.555 35.8871 126.968C35.3377 126.382 35.2348 125.599 35.6409 125.222C36.054 124.851 36.8133 125.025 37.3641 125.611C37.9134 126.203 38.0205 126.98 37.6019 127.356ZM40.436 132.072C39.9214 132.43 39.08 132.094 38.5599 131.348C38.0453 130.601 38.0453 129.705 38.571 129.346C39.0925 128.988 39.9214 129.31 40.4485 130.051C40.9617 130.811 40.9617 131.706 40.436 132.072ZM45.2291 137.534C44.7688 138.042 43.7883 137.906 43.0706 137.213C42.3363 136.536 42.1319 135.575 42.5936 135.067C43.0595 134.558 44.0456 134.701 44.7688 135.388C45.4975 136.064 45.72 137.032 45.2291 137.534ZM51.4237 139.378C51.2207 140.036 50.2763 140.335 49.3251 140.056C48.3752 139.768 47.7535 138.997 47.9454 138.332C48.1429 137.67 49.0914 137.359 50.0496 137.658C50.9981 137.944 51.6212 138.709 51.4237 139.378ZM58.4734 140.16C58.4971 140.853 57.6904 141.427 56.6919 141.44C55.6877 141.462 54.8755 140.902 54.8644 140.22C54.8644 139.521 55.653 138.952 56.6571 138.935C57.6557 138.916 58.4734 139.472 58.4734 140.16ZM65.399 139.895C65.5186 140.571 64.8246 141.265 63.833 141.45C62.8581 141.628 61.9555 141.211 61.8317 140.54C61.7107 139.848 62.4172 139.154 63.3907 138.974C64.3837 138.802 65.2724 139.208 65.399 139.895Z" fill="#161614"/>
</g>
</svg>
