<svg width="172" height="172" viewBox="0 0 172 172" fill="none" xmlns="http://www.w3.org/2000/svg">
<g id="JavaScript">
<path id="Shape" fill-rule="evenodd" clip-rule="evenodd" d="M0 0H172V172H0V0Z" fill="#F7DF1E"/>
<path id="Shape_2" fill-rule="evenodd" clip-rule="evenodd" d="M45.2251 143.736L58.3878 135.77C60.9271 140.272 63.2371 144.082 68.7779 144.082C74.0892 144.082 77.4377 142.004 77.4377 133.923V78.9647H93.6014V134.151C93.6014 150.893 83.7881 158.513 69.4708 158.513C56.5405 158.513 49.0348 151.816 45.2249 143.734" fill="#232121"/>
<path id="Shape_3" fill-rule="evenodd" clip-rule="evenodd" d="M102.381 142.004L115.542 134.384C119.007 140.042 123.509 144.198 131.475 144.198C138.173 144.198 142.444 140.849 142.444 136.231C142.444 130.689 138.057 128.726 130.667 125.494L126.627 123.761C114.965 118.797 107.229 112.563 107.229 99.4005C107.229 87.2775 116.466 78.0405 130.899 78.0405C141.174 78.0405 148.564 81.62 153.874 90.9722L141.289 99.0537C138.518 94.0895 135.517 92.1271 130.899 92.1271C126.165 92.1271 123.163 95.1289 123.163 99.0537C123.163 103.903 126.165 105.866 133.092 108.868L137.132 110.6C150.872 116.489 158.608 122.492 158.608 136C158.608 150.548 147.178 158.514 131.822 158.514C116.813 158.514 107.114 151.356 102.381 142.004" fill="#232121"/>
</g>
</svg>
