<svg width="172" height="172" viewBox="0 0 172 172" fill="none" xmlns="http://www.w3.org/2000/svg">
<g id="laravel-2 1" clip-path="url(#clip0_96_996)">
<path id="Vector" d="M171.903 39.4794C171.967 39.7087 171.999 39.9451 172 40.1826V77.102C172 77.5758 171.871 78.0413 171.627 78.4513C171.382 78.8614 171.031 79.2015 170.607 79.4372L138.708 97.2777V132.639C138.708 133.601 138.181 134.49 137.322 134.974L70.7343 172.21C70.5819 172.294 70.4156 172.348 70.2493 172.405C70.187 172.425 70.1281 172.462 70.0623 172.479C69.5968 172.598 69.1075 172.598 68.642 172.479C68.5658 172.459 68.4966 172.419 68.4238 172.392C68.2714 172.338 68.1121 172.291 67.9666 172.21L1.39252 134.974C0.969591 134.738 0.618183 134.398 0.373709 133.988C0.129235 133.578 0.000335102 133.113 0 132.639L0 21.8811C0 21.6389 0.0346397 21.4033 0.0969912 21.1745C0.117775 21.0971 0.166271 21.0264 0.193982 20.9491C0.245942 20.8077 0.294438 20.663 0.370645 20.5318C0.422604 20.4443 0.498812 20.3737 0.561163 20.2929C0.640835 20.1852 0.713578 20.0742 0.807105 19.98C0.886777 19.9026 0.990696 19.8454 1.08076 19.7781C1.18121 19.6973 1.27128 19.6098 1.38559 19.5459L34.6778 0.928089C35.0993 0.692483 35.5771 0.568481 36.0634 0.568481C36.5497 0.568481 37.0275 0.692483 37.449 0.928089L70.7377 19.5459H70.7447C70.8555 19.6132 70.9491 19.6973 71.0495 19.7747C71.1396 19.842 71.24 19.9026 71.3197 19.9766C71.4167 20.0742 71.486 20.1852 71.5691 20.2929C71.628 20.3737 71.7077 20.4443 71.7562 20.5318C71.8358 20.6664 71.8809 20.8077 71.9363 20.9491C71.964 21.0264 72.0125 21.0971 72.0333 21.1779C72.0971 21.4072 72.1297 21.6436 72.1303 21.8811V91.0594L99.8697 75.544V40.1793C99.8697 39.9437 99.9044 39.7048 99.9667 39.4794C99.991 39.3986 100.036 39.328 100.064 39.2506C100.119 39.1093 100.168 38.9646 100.244 38.8333C100.296 38.7458 100.372 38.6752 100.431 38.5944C100.514 38.4868 100.583 38.3757 100.68 38.2815C100.76 38.2041 100.86 38.1469 100.951 38.0796C101.054 37.9988 101.144 37.9114 101.255 37.8474L134.551 19.2296C134.972 18.9937 135.45 18.8695 135.937 18.8695C136.423 18.8695 136.901 18.9937 137.322 19.2296L170.611 37.8474C170.729 37.9147 170.819 37.9988 170.923 38.0762C171.009 38.1435 171.11 38.2041 171.189 38.2781C171.286 38.3757 171.356 38.4868 171.439 38.5944C171.501 38.6752 171.577 38.7458 171.626 38.8333C171.706 38.9646 171.751 39.1093 171.806 39.2506C171.837 39.328 171.882 39.3986 171.903 39.4794ZM166.451 75.544V44.843L154.801 51.3574L138.708 60.3584V91.0594L166.454 75.544H166.451ZM133.162 131.081V100.36L117.332 109.142L72.1268 134.204V165.214L133.162 131.081ZM5.54928 26.5415V131.081L66.5775 165.211V134.207L34.6951 116.68L34.6847 116.673L34.6709 116.666C34.5635 116.606 34.4734 116.518 34.373 116.444C34.2864 116.377 34.1859 116.323 34.1097 116.249L34.1028 116.239C34.0127 116.155 33.9504 116.05 33.8742 115.956C33.8049 115.865 33.7218 115.788 33.6663 115.694L33.6629 115.684C33.6005 115.583 33.5624 115.461 33.5174 115.347C33.4724 115.246 33.4135 115.152 33.3857 115.044C33.3511 114.916 33.3442 114.778 33.3303 114.647C33.3165 114.546 33.2888 114.445 33.2888 114.344V42.0569L17.1986 33.0525L5.54928 26.5415ZM36.0669 6.37245L8.33085 21.8811L36.0599 37.3898L63.7925 21.8778L36.0599 6.37245H36.0669ZM50.4908 103.16L66.581 94.1619V26.5415L54.9317 33.0559L38.838 42.0569V109.677L50.4908 103.16ZM135.937 24.674L108.204 40.1826L135.937 55.6913L163.666 40.1793L135.937 24.674ZM133.162 60.3584L117.068 51.3574L105.419 44.843V75.544L121.509 84.5417L133.162 91.0594V60.3584ZM69.3487 129.543L110.026 106.985L130.36 95.7131L102.648 80.2145L70.7412 98.0584L41.6612 114.321L69.3487 129.543Z" fill="#FF2D20"/>
</g>
<defs>
<clipPath id="clip0_96_996">
<rect width="172" height="172" fill="white"/>
</clipPath>
</defs>
</svg>
