<svg width="188" height="185" viewBox="0 0 188 185" fill="none" xmlns="http://www.w3.org/2000/svg">
<g id="Asset 1 1" clip-path="url(#clip0_187_51)">
<g id="Layer 2">
<g id="Layer 1">
<path id="Vector" fill-rule="evenodd" clip-rule="evenodd" d="M42.7583 31.6111C40.9885 31.5985 39.2248 31.819 37.5126 32.2668V32.5127H37.7585C38.98 34.3695 40.3506 36.1239 41.8567 37.7585C42.8676 39.8076 43.7692 41.8567 44.7801 43.9058L45.0533 43.6326C46.0164 42.8887 46.7731 41.9106 47.2514 40.7915C47.7296 39.6724 47.9135 38.4496 47.7855 37.2394C47.0205 36.3377 46.9112 35.4635 46.2555 34.5072C45.5998 33.5509 43.7146 32.7859 42.7583 31.6111Z" fill="#5D87A1"/>
<path id="Vector_2" fill-rule="evenodd" clip-rule="evenodd" d="M173.192 142.755C164.761 142.152 156.3 143.373 148.384 146.335C146.444 147.1 143.384 147.1 143.138 149.531C144.149 150.542 144.285 152.263 145.187 153.629C146.939 156.585 149.184 159.219 151.826 161.416C154.558 163.465 157.29 165.514 160.023 167.29C164.995 170.378 170.623 172.153 175.487 175.241C178.219 177.017 181.115 179.312 183.929 181.252C185.322 182.262 186.224 183.984 188 184.557V184.175C187.098 183.027 186.852 181.443 185.978 180.077L182.126 176.388C178.386 171.427 173.908 167.069 168.848 163.465C164.749 160.733 155.788 156.799 154.121 152.099L153.875 151.826C156.872 151.406 159.825 150.72 162.7 149.777C167.044 148.63 170.897 148.875 175.487 147.728C177.536 147.209 179.558 146.58 181.634 145.952V144.805C179.312 142.509 177.645 139.34 175.241 137.264C168.621 131.485 161.559 126.232 154.121 121.554C150.16 118.986 145.05 117.319 140.816 115.161C139.286 114.396 136.745 114.013 135.843 112.729C133.747 109.638 131.988 106.332 130.597 102.866C126.882 95.8442 123.302 88.0575 120.106 80.626C118.216 75.6436 116.045 70.7725 113.603 66.0363C100.407 44.3156 86.0904 31.1466 64.0965 18.2235C58.9018 15.7235 53.3846 13.958 47.7035 12.9777C44.5069 12.9777 41.3103 12.5952 38.1136 12.4586C36.0362 11.1285 34.0715 9.62986 32.2395 7.97789C24.972 3.36053 6.17469 -6.61185 0.819655 6.55716C-2.65019 14.7536 5.9288 22.9501 8.85221 27.2669C11.3304 30.2475 13.517 33.4588 15.3821 36.8568C16.2837 39.0426 16.5296 41.3376 17.4312 43.6326C19.3047 49.4776 21.5216 55.2069 24.0703 60.7906C25.4589 63.5388 27.0383 66.1864 28.797 68.7138C29.8352 70.1072 31.5291 70.7356 32.0209 73.058C30.2177 75.5989 30.0811 79.4512 29.0702 82.6478C24.5895 97.101 26.2561 114.997 32.7859 125.679C34.8077 128.876 39.671 135.925 46.2008 133.22C51.9657 130.925 50.6816 123.658 52.3482 117.264C52.7307 115.707 52.3482 114.696 53.2225 113.685V113.931C55.0257 117.51 56.8016 120.953 58.4682 124.532C63.0277 131.124 68.6505 136.913 75.1071 141.663C78.1671 143.985 80.5714 147.946 84.4238 149.34V148.957H84.1779C83.3254 147.969 82.331 147.113 81.2271 146.416C78.8225 144.03 76.6031 141.463 74.588 138.739C69.1665 131.398 64.3772 123.611 60.2715 115.461C58.2223 111.499 56.4191 107.265 54.8071 103.194C54.0421 101.664 54.0421 99.3414 52.758 98.5764C50.3941 101.236 48.3324 104.15 46.6107 107.265C44.179 112.729 43.8785 119.559 43.0315 126.581C42.5124 126.718 42.7856 126.581 42.5124 126.827C38.4415 125.816 37.0481 121.608 35.4908 118.029C31.503 107.054 31.1012 95.0958 34.3433 83.8773C35.2176 81.1452 39.0699 72.7574 37.5399 70.2165C36.7476 67.7849 34.2067 66.3915 32.8133 64.479C31.022 61.8967 29.4762 59.1526 28.1959 56.2825C25.1086 49.0149 23.5512 40.9824 20.2453 33.9334C18.4016 30.4681 16.2626 27.1682 13.8521 24.0703C11.1892 20.979 8.82873 17.6396 6.80309 14.0979C6.17469 12.7045 5.27308 10.4095 6.3113 8.8795C6.38999 8.42662 6.61868 8.01335 6.9606 7.70612C7.30251 7.39889 7.7378 7.21555 8.19649 7.18556C9.86311 5.79216 14.5897 7.56806 16.393 8.36039C20.7489 10.0317 24.9084 12.1756 28.797 14.7536C30.6002 16.0104 32.5127 18.4421 34.8077 19.0978H37.5399C41.6108 19.9721 46.2282 19.3437 50.0805 20.4912C56.5492 22.6655 62.725 25.6295 68.4679 29.3161C85.398 40.1016 99.163 55.1864 108.357 73.0306C109.915 75.9541 110.543 78.6589 111.964 81.7189C114.696 88.0029 117.975 94.3961 120.652 100.516C123.003 106.558 126.047 112.307 129.723 117.647C131.635 120.379 139.313 121.745 142.783 123.111C145.324 124.259 149.285 125.27 151.608 126.663C155.952 129.395 160.296 132.428 164.394 135.379C166.416 136.909 172.809 140.105 173.219 142.673" fill="#00758F"/>
</g>
</g>
</g>
<defs>
<clipPath id="clip0_187_51">
<rect width="188" height="184.557" fill="white"/>
</clipPath>
</defs>
</svg>
