<svg width="172" height="172" viewBox="0 0 172 172" fill="none" xmlns="http://www.w3.org/2000/svg">
<ellipse cx="86" cy="85.8137" rx="83.9844" ry="44.1574" fill="url(#paint0_radial_87_583)"/>
<ellipse cx="86" cy="85.8137" rx="80.7037" ry="40.8768" fill="#6181B6"/>
<path fill-rule="evenodd" clip-rule="evenodd" d="M102.338 99.0674L106.34 78.465C107.259 73.8065 106.471 70.329 104.109 68.1638C101.813 66.0642 97.8759 65.0144 92.102 65.0144H85.147L87.1154 54.7788C87.181 54.3851 87.1154 53.9915 86.853 53.6634C86.5905 53.3353 86.2624 53.2041 85.8688 53.2041H76.2893C75.6332 53.2041 75.1083 53.6634 74.977 54.2539L70.7122 76.103C70.3185 73.6097 69.3999 71.5101 67.8252 69.8041C65.0039 66.5891 60.6078 64.9488 54.6371 64.9488H36.1999C35.5437 64.9488 35.0188 65.4081 34.8876 65.9986L26.2923 110.353C26.2267 110.747 26.2923 111.14 26.5548 111.468C26.8172 111.796 27.1453 111.928 27.539 111.928H37.1841C37.8402 111.928 38.3651 111.468 38.4963 110.878L40.5959 100.183H47.7477C51.4877 100.183 54.7027 99.7892 57.1304 99.0018C59.6893 98.1489 61.9857 96.771 64.0197 94.8682C65.66 93.3591 67.0379 91.6532 68.0877 89.816L66.3818 98.6738C66.3161 99.0674 66.3818 99.4611 66.6442 99.7892C66.9067 100.117 67.2347 100.248 67.6284 100.248H77.2079C77.864 100.248 78.3889 99.7892 78.5201 99.1987L83.2442 74.9219H89.8055C92.6269 74.9219 93.4142 75.4468 93.6767 75.7093C93.8735 75.9061 94.2672 76.6935 93.8079 79.1212L90.0024 98.7394C89.9368 99.1331 90.0024 99.5267 90.2648 99.8548C90.5273 100.183 90.8553 100.314 91.249 100.314H101.091C101.681 100.117 102.206 99.658 102.338 99.0674V99.0674ZM57.9833 82.0081C57.3928 85.0919 56.2774 87.3228 54.6371 88.5694C52.9968 89.816 50.3066 90.4722 46.7635 90.4722H42.4987L45.5825 74.5939H51.094C55.162 74.5939 56.8023 75.4468 57.4584 76.1686C58.3114 77.2184 58.5082 79.2524 57.9833 82.0081V82.0081Z" fill="white"/>
<path fill-rule="evenodd" clip-rule="evenodd" d="M143.28 69.8041C140.459 66.5891 136.063 64.9487 130.092 64.9487H111.523C110.867 64.9487 110.342 65.408 110.211 65.9985L101.616 110.287C101.55 110.681 101.616 111.075 101.878 111.403C102.141 111.731 102.469 111.862 102.862 111.862H112.508C113.164 111.862 113.689 111.403 113.82 110.812L115.919 100.117H123.071C126.811 100.117 130.026 99.7235 132.454 98.9362C135.013 98.0832 137.309 96.7053 139.343 94.8026C141.049 93.2278 142.493 91.4563 143.542 89.5535C144.592 87.6508 145.38 85.5511 145.839 83.2547C146.954 77.5464 146.101 73.0847 143.28 69.8041V69.8041ZM133.241 82.0081C132.651 85.0919 131.535 87.3227 129.895 88.5693C128.255 89.816 125.564 90.4721 122.021 90.4721H117.757L120.84 74.5938H126.352C130.42 74.5938 132.06 75.4468 132.716 76.1685C133.635 77.2183 133.832 79.2523 133.241 82.0081V82.0081Z" fill="white"/>
<path fill-rule="evenodd" clip-rule="evenodd" d="M51.094 73.2816C54.7683 73.2816 57.196 73.9377 58.4426 75.3156C59.6893 76.6934 59.9517 78.9899 59.2956 82.2705C58.6395 85.6824 57.3272 88.1757 55.4244 89.6191C53.5217 91.0626 50.6347 91.7844 46.7635 91.7844H40.924L44.5327 73.2816H51.094V73.2816ZM27.6046 110.55H37.2497L39.5461 98.8049H47.8134C51.4877 98.8049 54.4402 98.4113 56.8023 97.6239C59.1644 96.8365 61.264 95.5899 63.2324 93.7527C64.8727 92.2437 66.1849 90.6033 67.1691 88.8318C68.1533 87.0602 68.8751 85.0919 69.2687 82.9266C70.3185 77.6776 69.5312 73.6096 66.9723 70.657C64.4134 67.7045 60.3454 66.261 54.7683 66.261H36.1999L27.6046 110.55V110.55Z" fill="#000004"/>
<path fill-rule="evenodd" clip-rule="evenodd" d="M76.3549 54.5164H85.9344L83.6379 66.261H92.1676C97.5479 66.261 101.222 67.1796 103.256 69.0824C105.29 70.9852 105.881 74.0034 105.093 78.2026L101.091 98.805H91.3802L95.1858 79.1868C95.6451 76.9559 95.4482 75.4468 94.7265 74.6595C94.0048 73.8721 92.3644 73.4128 89.9368 73.4128H82.2601L77.3391 98.805H67.7596L76.3549 54.5164V54.5164Z" fill="#000004"/>
<path fill-rule="evenodd" clip-rule="evenodd" d="M126.352 73.2816C130.026 73.2816 132.454 73.9377 133.7 75.3156C134.947 76.6934 135.21 78.9899 134.553 82.2705C133.897 85.6824 132.585 88.1757 130.682 89.6191C128.78 91.0626 125.893 91.7844 122.021 91.7844H116.182L119.791 73.2816H126.352V73.2816ZM102.862 110.55H112.508L114.804 98.8049H123.071C126.746 98.8049 129.698 98.4113 132.06 97.6239C134.422 96.8365 136.522 95.5899 138.49 93.7527C140.131 92.2437 141.443 90.6033 142.427 88.8318C143.411 87.0602 144.133 85.0919 144.527 82.9266C145.576 77.6776 144.789 73.6096 142.23 70.657C139.671 67.7045 135.603 66.261 130.026 66.261H111.458L102.862 110.55V110.55Z" fill="#000004"/>
<defs>
<radialGradient id="paint0_radial_87_583" cx="0" cy="0" r="1" gradientUnits="userSpaceOnUse" gradientTransform="translate(52.4402 57.1853) scale(238.211 125.247)">
<stop stop-color="white"/>
<stop offset="0.5" stop-color="#4C6B97"/>
<stop offset="1" stop-color="#231F20"/>
</radialGradient>
</defs>
</svg>
