<svg width="172" height="172" viewBox="0 0 172 172" fill="none" xmlns="http://www.w3.org/2000/svg">
<g id="TailwindCSS">
<path id="Vector" d="M86 34.2656C63.0667 34.2656 48.7333 45.7323 43 68.6656C51.6 57.199 61.6333 52.899 73.1 55.7656C79.6424 57.4012 84.3185 62.1475 89.4945 67.4014C97.9263 75.96 107.685 85.8656 129 85.8656C151.933 85.8656 166.267 74.399 172 51.4656C163.4 62.9323 153.367 67.2323 141.9 64.3656C135.358 62.73 130.681 57.9838 125.506 52.7298C117.074 44.1712 107.315 34.2656 86 34.2656ZM43 85.8656C20.0667 85.8656 5.73333 97.3323 0 120.266C8.6 108.799 18.6333 104.499 30.1 107.366C36.6424 109.001 41.3185 113.747 46.4945 119.001C54.9263 127.56 64.6851 137.466 86 137.466C108.933 137.466 123.267 125.999 129 103.066C120.4 114.532 110.367 118.832 98.9 115.966C92.3576 114.33 87.6815 109.584 82.5055 104.33C74.0737 95.7712 64.3149 85.8656 43 85.8656Z" fill="url(#paint0_linear_87_557)"/>
</g>
<defs>
<linearGradient id="paint0_linear_87_557" x1="-4.77778" y1="67.2896" x2="143.772" y2="152.94" gradientUnits="userSpaceOnUse">
<stop stop-color="#2298BD"/>
<stop offset="1" stop-color="#0ED7B5"/>
</linearGradient>
</defs>
</svg>
